<?plantuml 1.2026.2?><svg xmlns="http://www.w3.org/2000/svg" xmlns:xlink="http://www.w3.org/1999/xlink" contentStyleType="text/css" data-diagram-type="DESCRIPTION" height="1066px" preserveAspectRatio="none" style="width:1185px;height:1066px;background:#FFFFFF;" version="1.1" viewBox="0 0 1185 1066" width="1185px" zoomAndPan="magnify"><defs/><g><!--cluster Frontend Web--><g class="cluster" data-qualified-name="Frontend Web" data-source-line="9" id="ent0002"><path d="M8.5,41.08 L121.5615,41.08 A3.75,3.75 0 0 1 124.0615,43.58 L131.0615,63.3769 L429.5,63.3769 A2.5,2.5 0 0 1 432,65.8769 L432,427.55 A2.5,2.5 0 0 1 429.5,430.05 L8.5,430.05 A2.5,2.5 0 0 1 6,427.55 L6,43.58 A2.5,2.5 0 0 1 8.5,41.08" fill="none" style="stroke:#1F2937;stroke-width:1.5;"/><line style="stroke:#1F2937;stroke-width:1.5;" x1="6" x2="131.0615" y1="63.3769" y2="63.3769"/><text fill="#000000" font-family="sans-serif" font-size="14" font-weight="bold" lengthAdjust="spacing" textLength="112.0615" x="10" y="56.0751">Frontend Web</text></g><!--cluster Backend API--><g class="cluster" data-qualified-name="Backend API" data-source-line="16" id="ent0007"><path d="M458.5,245.46 L557.8896,245.46 A3.75,3.75 0 0 1 560.3896,247.96 L567.3896,267.7569 L844.5,267.7569 A2.5,2.5 0 0 1 847,270.2569 L847,954.73 A2.5,2.5 0 0 1 844.5,957.23 L458.5,957.23 A2.5,2.5 0 0 1 456,954.73 L456,247.96 A2.5,2.5 0 0 1 458.5,245.46" fill="none" style="stroke:#1F2937;stroke-width:1.5;"/><line style="stroke:#1F2937;stroke-width:1.5;" x1="456" x2="567.3896" y1="267.7569" y2="267.7569"/><text fill="#000000" font-family="sans-serif" font-size="14" font-weight="bold" lengthAdjust="spacing" textLength="98.3896" x="460" y="260.4551">Backend API</text></g><!--entity ReactUI--><g class="entity" data-qualified-name="Frontend Web.ReactUI" data-source-line="10" id="ent0003"><rect fill="#F1F1F1" height="36.2969" rx="2.5" ry="2.5" style="stroke:#1F2937;stroke-width:0.5;" width="78.9326" x="335.53" y="76.08"/><text fill="#000000" font-family="sans-serif" font-size="14" lengthAdjust="spacing" textLength="58.9326" x="345.53" y="99.0751">React UI</text></g><!--entity Redux--><g class="entity" data-qualified-name="Frontend Web.Redux" data-source-line="11" id="ent0004"><rect fill="#F1F1F1" height="36.2969" rx="2.5" ry="2.5" style="stroke:#1F2937;stroke-width:0.5;" width="115.8945" x="52.05" y="377.76"/><text fill="#000000" font-family="sans-serif" font-size="14" lengthAdjust="spacing" textLength="95.8945" x="62.05" y="400.7551">Redux Toolkit</text></g><!--entity Router--><g class="entity" data-qualified-name="Frontend Web.Router" data-source-line="12" id="ent0005"><rect fill="#F1F1F1" height="36.2969" rx="2.5" ry="2.5" style="stroke:#1F2937;stroke-width:0.5;" width="175.1553" x="22.42" y="280.46"/><text fill="#000000" font-family="sans-serif" font-size="14" lengthAdjust="spacing" textLength="155.1553" x="32.42" y="303.4551">Router + Auth Guards</text></g><!--entity FEUtils--><g class="entity" data-qualified-name="Frontend Web.FEUtils" data-source-line="13" id="ent0006"><rect fill="#F1F1F1" height="36.2969" rx="2.5" ry="2.5" style="stroke:#1F2937;stroke-width:0.5;" width="183.4336" x="232.28" y="280.46"/><text fill="#000000" font-family="sans-serif" font-size="14" lengthAdjust="spacing" textLength="163.4336" x="242.28" y="303.4551">i18n + Charts + Export</text></g><!--entity ExpressApp--><g class="entity" data-qualified-name="Backend API.ExpressApp" data-source-line="17" id="ent0008"><rect fill="#F1F1F1" height="36.2969" rx="2.5" ry="2.5" style="stroke:#1F2937;stroke-width:0.5;" width="106.7754" x="677.61" y="377.76"/><text fill="#000000" font-family="sans-serif" font-size="14" lengthAdjust="spacing" textLength="86.7754" x="687.61" y="400.7551">Express App</text></g><!--entity Middleware--><g class="entity" data-qualified-name="Backend API.Middleware" data-source-line="18" id="ent0009"><rect fill="#F1F1F1" height="52.5938" rx="2.5" ry="2.5" style="stroke:#1F2937;stroke-width:0.5;" width="199.6621" x="631.17" y="477.05"/><text fill="#000000" font-family="sans-serif" font-size="14" lengthAdjust="spacing" textLength="80.6436" x="641.17" y="500.0451">Middleware</text><text fill="#000000" font-family="sans-serif" font-size="14" lengthAdjust="spacing" textLength="179.6621" x="641.17" y="516.342">(auth, role, upload, audit)</text></g><!--entity Controllers--><g class="entity" data-qualified-name="Backend API.Controllers" data-source-line="19" id="ent0010"><rect fill="#F1F1F1" height="36.2969" rx="2.5" ry="2.5" style="stroke:#1F2937;stroke-width:0.5;" width="165.6602" x="652.17" y="690.99"/><text fill="#000000" font-family="sans-serif" font-size="14" lengthAdjust="spacing" textLength="145.6602" x="662.17" y="713.9851">Routes + Controllers</text></g><!--entity Services--><g class="entity" data-qualified-name="Backend API.Services" data-source-line="20" id="ent0011"><rect fill="#F1F1F1" height="52.5938" rx="2.5" ry="2.5" style="stroke:#1F2937;stroke-width:0.5;" width="182.3262" x="648.84" y="888.64"/><text fill="#000000" font-family="sans-serif" font-size="14" lengthAdjust="spacing" textLength="59.0352" x="658.84" y="911.6351">Services</text><text fill="#000000" font-family="sans-serif" font-size="14" lengthAdjust="spacing" textLength="162.3262" x="658.84" y="927.932">(cron, recurring, email)</text></g><!--entity Swagger--><g class="entity" data-qualified-name="Backend API.Swagger" data-source-line="21" id="ent0012"><rect fill="#F1F1F1" height="36.2969" rx="2.5" ry="2.5" style="stroke:#1F2937;stroke-width:0.5;" width="99.8848" x="472.06" y="280.46"/><text fill="#000000" font-family="sans-serif" font-size="14" lengthAdjust="spacing" textLength="79.8848" x="482.06" y="303.4551">Swagger UI</text></g><!--entity Socket--><g class="entity" data-qualified-name="Backend API.Socket" data-source-line="22" id="ent0013"><rect fill="#F1F1F1" height="36.2969" rx="2.5" ry="2.5" style="stroke:#1F2937;stroke-width:0.5;" width="86.958" x="606.52" y="280.46"/><text fill="#000000" font-family="sans-serif" font-size="14" lengthAdjust="spacing" textLength="66.958" x="616.52" y="303.4551">Socket.IO</text></g><!--entity Models--><g class="entity" data-qualified-name="Backend API.Models" data-source-line="23" id="ent0014"><rect fill="#F1F1F1" height="36.2969" rx="2.5" ry="2.5" style="stroke:#1F2937;stroke-width:0.5;" width="141.3926" x="472.3" y="896.79"/><text fill="#000000" font-family="sans-serif" font-size="14" lengthAdjust="spacing" textLength="121.3926" x="482.3" y="919.7851">Sequelize Models</text></g><!--entity Postgres--><g class="entity" data-qualified-name="Postgres" data-source-line="26" id="ent0015"><path d="M635.62,1014.23 C635.62,1004.23 685.9965,1004.23 685.9965,1004.23 C685.9965,1004.23 736.3729,1004.23 736.3729,1014.23 L736.3729,1039.5269 C736.3729,1049.5269 685.9965,1049.5269 685.9965,1049.5269 C685.9965,1049.5269 635.62,1049.5269 635.62,1039.5269 L635.62,1014.23" fill="#F1F1F1" style="stroke:#1F2937;stroke-width:0.5;"/><path d="M635.62,1014.23 C635.62,1024.23 685.9965,1024.23 685.9965,1024.23 C685.9965,1024.23 736.3729,1024.23 736.3729,1014.23" fill="none" style="stroke:#1F2937;stroke-width:0.5;"/><text fill="#000000" font-family="sans-serif" font-size="14" lengthAdjust="spacing" textLength="80.7529" x="645.62" y="1041.2251">PostgreSQL</text></g><!--entity Redis--><g class="entity" data-qualified-name="Redis" data-source-line="27" id="ent0016"><path d="M936.79,1013.73 L985.2011,1013.73 C990.2011,1013.73 990.2011,1026.8784 990.2011,1026.8784 C990.2011,1026.8784 990.2011,1040.0269 985.2011,1040.0269 L936.79,1040.0269 C931.79,1040.0269 931.79,1026.8784 931.79,1026.8784 C931.79,1026.8784 931.79,1013.73 936.79,1013.73" fill="#F1F1F1" style="stroke:#181818;stroke-width:0.5;"/><path d="M985.2011,1013.73 C980.2011,1013.73 980.2011,1026.8784 980.2011,1026.8784 C980.2011,1040.0269 985.2011,1040.0269 985.2011,1040.0269" fill="none" style="stroke:#181818;stroke-width:0.5;"/><text fill="#000000" font-family="sans-serif" font-size="14" lengthAdjust="spacing" textLength="38.4111" x="936.79" y="1031.7251">Redis</text></g><g class="entity" data-qualified-name="GMN32" data-source-line="47" id="ent0033"><path d="M449.88,6 L449.88,90.23 L414.92,94.23 L449.88,98.23 L449.88,182.4609 A0,0 0 0 0 449.88,182.4609 L592.1202,182.4609 A0,0 0 0 0 592.1202,182.4609 L592.1202,16 L582.1202,6 L449.88,6 A0,0 0 0 0 449.88,6" fill="#FEFFDD" style="stroke:#181818;stroke-width:0.5;"/><path d="M582.1202,6 L582.1202,16 L592.1202,16 L582.1202,6" fill="#FEFFDD" style="stroke:#181818;stroke-width:0.5;"/><text fill="#000000" font-family="sans-serif" font-size="13" lengthAdjust="spacing" textLength="81.7324" x="455.88" y="23.0669">Trang chinh:</text><text fill="#000000" font-family="sans-serif" font-size="13" lengthAdjust="spacing" textLength="79.5806" x="455.88" y="38.1997">- Dashboard</text><text fill="#000000" font-family="sans-serif" font-size="13" lengthAdjust="spacing" textLength="91.876" x="455.88" y="53.3325">- Transactions</text><text fill="#000000" font-family="sans-serif" font-size="13" lengthAdjust="spacing" textLength="56.7354" x="455.88" y="68.4653">- Wallets</text><text fill="#000000" font-family="sans-serif" font-size="13" lengthAdjust="spacing" textLength="45.2017" x="455.88" y="83.5981">- Goals</text><text fill="#000000" font-family="sans-serif" font-size="13" lengthAdjust="spacing" textLength="51.8477" x="455.88" y="98.731">- Family</text><text fill="#000000" font-family="sans-serif" font-size="13" lengthAdjust="spacing" textLength="59.2744" x="455.88" y="113.8638">- Reports</text><text fill="#000000" font-family="sans-serif" font-size="13" lengthAdjust="spacing" textLength="64.5811" x="455.88" y="128.9966">- Forecast</text><text fill="#000000" font-family="sans-serif" font-size="13" lengthAdjust="spacing" textLength="62.1436" x="455.88" y="144.1294">- Settings</text><text fill="#000000" font-family="sans-serif" font-size="13" lengthAdjust="spacing" textLength="49.7593" x="455.88" y="159.2622">- Profile</text><text fill="#000000" font-family="sans-serif" font-size="13" lengthAdjust="spacing" textLength="121.2402" x="455.88" y="174.395">- AdminDashboard</text></g><g class="entity" data-qualified-name="GMN35" data-source-line="61" id="ent0036"><path d="M862.78,590.65 L862.78,705.14 L818.26,709.14 L862.78,713.14 L862.78,827.6422 A0,0 0 0 0 862.78,827.6422 L1027.2243,827.6422 A0,0 0 0 0 1027.2243,827.6422 L1027.2243,600.65 L1017.2243,590.65 L862.78,590.65 A0,0 0 0 0 862.78,590.65" fill="#FEFFDD" style="stroke:#181818;stroke-width:0.5;"/><path d="M1017.2243,590.65 L1017.2243,600.65 L1027.2243,600.65 L1017.2243,590.65" fill="#FEFFDD" style="stroke:#181818;stroke-width:0.5;"/><text fill="#000000" font-family="sans-serif" font-size="13" lengthAdjust="spacing" textLength="143.4443" x="868.78" y="607.7169">Module route hien tai:</text><text fill="#000000" font-family="sans-serif" font-size="13" lengthAdjust="spacing" textLength="38.3652" x="868.78" y="622.8497">- auth</text><text fill="#000000" font-family="sans-serif" font-size="13" lengthAdjust="spacing" textLength="89.0322" x="868.78" y="637.9825">- transactions</text><text fill="#000000" font-family="sans-serif" font-size="13" lengthAdjust="spacing" textLength="45.1953" x="868.78" y="653.1153">- debts</text><text fill="#000000" font-family="sans-serif" font-size="13" lengthAdjust="spacing" textLength="88.7021" x="868.78" y="668.2481">- notifications</text><text fill="#000000" font-family="sans-serif" font-size="13" lengthAdjust="spacing" textLength="54.5137" x="868.78" y="683.381">- wallets</text><text fill="#000000" font-family="sans-serif" font-size="13" lengthAdjust="spacing" textLength="59.6362" x="868.78" y="698.5138">- families</text><text fill="#000000" font-family="sans-serif" font-size="13" lengthAdjust="spacing" textLength="43.3799" x="868.78" y="713.6466">- goals</text><text fill="#000000" font-family="sans-serif" font-size="13" lengthAdjust="spacing" textLength="68.3452" x="868.78" y="728.7794">- recurring</text><text fill="#000000" font-family="sans-serif" font-size="13" lengthAdjust="spacing" textLength="66.9297" x="868.78" y="743.9122">- analytics</text><text fill="#000000" font-family="sans-serif" font-size="13" lengthAdjust="spacing" textLength="43.9512" x="868.78" y="759.045">- users</text><text fill="#000000" font-family="sans-serif" font-size="13" lengthAdjust="spacing" textLength="61.6865" x="868.78" y="774.1778">- budgets</text><text fill="#000000" font-family="sans-serif" font-size="13" lengthAdjust="spacing" textLength="76.9653" x="868.78" y="789.3106">- categories</text><text fill="#000000" font-family="sans-serif" font-size="13" lengthAdjust="spacing" textLength="49.5562" x="868.78" y="804.4435">- admin</text><text fill="#000000" font-family="sans-serif" font-size="13" lengthAdjust="spacing" textLength="61.6802" x="868.78" y="819.5763">- forecast</text></g><!--link ReactUI to Router--><g class="link" data-entity-1="ent0003" data-entity-2="ent0005" data-link-type="dependency" data-source-line="29" id="lnk17"><path d="M351.95,112.84 C301.7,151.21 187.5985,238.3483 137.5785,276.5483" fill="none" id="ReactUI-to-Router" style="stroke:#475569;stroke-width:1;"/><polygon fill="#475569" points="132.81,280.19,142.3905,277.9065,136.7837,277.1553,137.5349,271.5485,132.81,280.19" style="stroke:#475569;stroke-width:1;"/></g><!--link Router to Redux--><g class="link" data-entity-1="ent0005" data-entity-2="ent0004" data-link-type="dependency" data-source-line="30" id="lnk18"><path d="M110,317.09 C110,334.28 110,354.38 110,371.54" fill="none" id="Router-to-Redux" style="stroke:#475569;stroke-width:1;"/><polygon fill="#475569" points="110,377.54,114,368.54,110,372.54,106,368.54,110,377.54" style="stroke:#475569;stroke-width:1;"/></g><!--link ReactUI to FEUtils--><g class="link" data-entity-1="ent0003" data-entity-2="ent0006" data-link-type="dependency" data-source-line="31" id="lnk19"><path d="M370.56,112.84 C360.89,151.21 339.4867,236.172 329.8567,274.372" fill="none" id="ReactUI-to-FEUtils" style="stroke:#475569;stroke-width:1;"/><polygon fill="#475569" points="328.39,280.19,334.4687,272.4408,329.6122,275.3417,326.7114,270.4852,328.39,280.19" style="stroke:#475569;stroke-width:1;"/></g><!--link ReactUI to ExpressApp--><g class="link" data-entity-1="ent0003" data-entity-2="ent0008" data-link-type="dependency" data-source-line="32" id="lnk20"><path d="M381.2,112.54 C389.45,132.87 406.08,165.91 432,182.46 C538.52,250.48 631.18,139.47 711,237.46 C744.24,278.26 739.907,339.8874 735.117,371.5674" fill="none" id="ReactUI-to-ExpressApp" style="stroke:#475569;stroke-width:1;"/><polygon fill="#475569" points="734.22,377.5,739.5205,369.1991,734.9675,372.5562,731.6105,368.0031,734.22,377.5" style="stroke:#475569;stroke-width:1;"/><text fill="#000000" font-family="sans-serif" font-size="13" lengthAdjust="spacing" textLength="58.1382" x="738.29" y="303.1769">REST API</text></g><!--link ReactUI to Socket--><g class="link" data-entity-1="ent0003" data-entity-2="ent0013" data-link-type="dependency" data-source-line="33" id="lnk21"><path d="M382.25,112.77 C391.21,132.38 408.22,163.83 432,182.46 C490.2,228.05 526.27,198.33 589,237.46 C607.42,248.95 620.7593,262.3495 632.1893,275.6495" fill="none" id="ReactUI-to-Socket" style="stroke:#475569;stroke-width:1;"/><polygon fill="#475569" points="636.1,280.2,633.2676,270.7672,632.8411,276.4079,627.2004,275.9814,636.1,280.2" style="stroke:#475569;stroke-width:1;"/><text fill="#000000" font-family="sans-serif" font-size="13" lengthAdjust="spacing" textLength="54.2915" x="575.43" y="225.5269">realtime</text></g><!--link ExpressApp to Middleware--><g class="link" data-entity-1="ent0008" data-entity-2="ent0009" data-link-type="dependency" data-source-line="35" id="lnk22"><path d="M731,414.32 C731,431.28 731,451.27 731,470.62" fill="none" id="ExpressApp-to-Middleware" style="stroke:#475569;stroke-width:1;"/><polygon fill="#475569" points="731,476.62,735,467.62,731,471.62,727,467.62,731,476.62" style="stroke:#475569;stroke-width:1;"/></g><!--link Middleware to Controllers--><g class="link" data-entity-1="ent0009" data-entity-2="ent0010" data-link-type="dependency" data-source-line="36" id="lnk23"><path d="M731.5,529.75 C732.32,571.68 733.8222,648.3512 734.5322,684.5112" fill="none" id="Middleware-to-Controllers" style="stroke:#475569;stroke-width:1;"/><polygon fill="#475569" points="734.65,690.51,738.4725,681.4332,734.5518,685.511,730.4741,681.5903,734.65,690.51" style="stroke:#475569;stroke-width:1;"/></g><!--link Controllers to Services--><g class="link" data-entity-1="ent0010" data-entity-2="ent0011" data-link-type="dependency" data-source-line="37" id="lnk24"><path d="M735.43,727.52 C736.31,763.52 738.1931,840.3918 739.2231,882.4518" fill="none" id="Controllers-to-Services" style="stroke:#475569;stroke-width:1;"/><polygon fill="#475569" points="739.37,888.45,743.1485,879.3548,739.2476,883.4515,735.1509,879.5506,739.37,888.45" style="stroke:#475569;stroke-width:1;"/></g><!--link Controllers to Models--><g class="link" data-entity-1="ent0010" data-entity-2="ent0014" data-link-type="dependency" data-source-line="38" id="lnk25"><path d="M718.63,727.52 C682.45,765.92 600.1142,853.3127 563.7142,891.9527" fill="none" id="Controllers-to-Models" style="stroke:#475569;stroke-width:1;"/><polygon fill="#475569" points="559.6,896.32,568.6828,892.5118,563.0285,892.6805,562.8597,887.0262,559.6,896.32" style="stroke:#475569;stroke-width:1;"/></g><!--link Swagger to ExpressApp--><g class="link" data-entity-1="ent0012" data-entity-2="ent0008" data-link-type="dependency" data-source-line="39" id="lnk26"><path d="M560.33,317.09 C597.93,334.23 649.4708,357.7305 687.1008,374.8905" fill="none" id="Swagger-to-ExpressApp" style="stroke:#475569;stroke-width:1;"/><polygon fill="#475569" points="692.56,377.38,686.0309,370.0063,688.0107,375.3054,682.7116,377.2852,692.56,377.38" style="stroke:#475569;stroke-width:1;"/></g><!--link Socket to ExpressApp--><g class="link" data-entity-1="ent0013" data-entity-2="ent0008" data-link-type="dependency" data-source-line="40" id="lnk27"><path d="M664.86,317.09 C679.47,334.28 697.775,355.8076 712.355,372.9676" fill="none" id="Socket-to-ExpressApp" style="stroke:#475569;stroke-width:1;"/><polygon fill="#475569" points="716.24,377.54,713.4608,368.0914,713.0025,373.7296,707.3643,373.2713,716.24,377.54" style="stroke:#475569;stroke-width:1;"/></g><!--link Models to Postgres--><g class="link" data-entity-1="ent0014" data-entity-2="ent0015" data-link-type="dependency" data-source-line="41" id="lnk28"><path d="M565.66,933.36 C590.47,952.43 625.5431,979.4033 652.5231,1000.1433" fill="none" id="Models-to-Postgres" style="stroke:#475569;stroke-width:1;"/><polygon fill="#475569" points="657.28,1003.8,652.5824,995.1436,653.3159,1000.7527,647.7068,1001.4862,657.28,1003.8" style="stroke:#475569;stroke-width:1;"/></g><!--link Services to Postgres--><g class="link" data-entity-1="ent0011" data-entity-2="ent0015" data-link-type="dependency" data-source-line="42" id="lnk29"><path d="M727.34,941.71 C718.05,960.63 708.216,980.6549 699.406,998.5849" fill="none" id="Services-to-Postgres" style="stroke:#475569;stroke-width:1;"/><polygon fill="#475569" points="696.76,1003.97,704.319,997.6564,698.965,999.4825,697.1389,994.1284,696.76,1003.97" style="stroke:#475569;stroke-width:1;"/></g><!--link Services to Redis--><g class="link" data-entity-1="ent0011" data-entity-2="ent0016" data-link-type="dependency" data-source-line="43" id="lnk30"><path d="M791.81,941.71 C837.11,964.25 895.5579,993.3278 930.4379,1010.6778" fill="none" id="Services-to-Redis" style="stroke:#475569;stroke-width:1;"/><polygon fill="#475569" points="935.81,1013.35,929.5333,1005.7603,931.3333,1011.1232,925.9704,1012.9231,935.81,1013.35" style="stroke:#475569;stroke-width:1;"/></g><!--link ExpressApp to Redis--><g class="link" data-entity-1="ent0008" data-entity-2="ent0016" data-link-type="dependency" data-source-line="44" id="lnk31"><path d="M784.61,401.14 C886.27,410.66 1097,438.13 1097,502.35 C1097,502.35 1097,502.35 1097,915.94 C1097,970.28 1036.1553,1000.3477 996.1553,1014.7477" fill="none" id="ExpressApp-to-Redis" style="stroke:#475569;stroke-width:1;"/><polygon fill="#475569" points="990.51,1016.78,1000.3329,1017.4951,995.2144,1015.0864,997.6231,1009.968,990.51,1016.78" style="stroke:#475569;stroke-width:1;"/><text fill="#000000" font-family="sans-serif" font-size="13" lengthAdjust="spacing" textLength="79.2124" x="1098" y="713.7069">healthcheck</text></g><?plantuml-src VLHHRnCn37w_Ns6L5n0jqe0njWUaRgnJ9IR6kcaFm8DxSU-Yfab9SdG3yT-naxlsLarxEjkVxNp-V4bOQhj6ZokOOxcil6kiEdF6UTZKEb8HjdYeKRcDjXKiq8G-KhhLsbcoSHOV386dCgAjJ3zbxBtRvBultXyT7duuxe5hFXahEdLUaM-J3YPlZzyTFNN8ysaA8yunFDciQ0-2mSGx6yagkAFv0FuM0D-l2Si8jzEVW06ISplDSTNSmurpPgbZ2t8aGQw9vE4rZ9jOmqM3NeMSaG19qGSVBIUSrUXZOEFyVkryRZCvlutQXE9VZzSf6q9hV3LjQN61fn1Wl5wdgjPdLz1BhPIX3NhwOLyYinY2TuQ6qAoDGpK4R9IEhrBbBdVBNHYTiH9SOyXdxZrVycRaV-kI0lSlMRIXRBVndd-38T0AjSdDkxHKii6gObrQBLit8Ox7Ys-cNpEGl7p8huQC_aDmwHIPJ2IR8a-tKnXSkH0hJxDlNmQIqhgXuFA6OTwC3eDsHpeKHRj768q-TKjfbvOYQP7zd6ud_TXESJY1w_FPZMpdKKOUX55FQA9UKL7qYYIZf_tEJ4XVxfwT-tQYxWEjD9tGZraMBPszQAv9qQritG7FHBEGU-Ea8CzRoxnrMLEvB0hh8jzzNTKHt69xWsuyFmLGrjhM9yK8FcEevuul2ji21SxIpWPsxv07Z69TE7vW-3l1bJOFR5oJt9eKSlp_OOXipYX6_WqbUkNTGlDxCuAnMccxEqJkal3QPzTNdOLfvDMI_m9gJHOYQk4gzua_yJ5DHVF4X1lgXIwnYs-sz1T2MvEOLJl9zj98Mulc8UfIuaqG1YEODwhAnToGAkTpESeqqh6RkfldFm00?></g></svg>