<?plantuml 1.2026.2?><svg xmlns="http://www.w3.org/2000/svg" xmlns:xlink="http://www.w3.org/1999/xlink" contentStyleType="text/css" data-diagram-type="DESCRIPTION" height="689px" preserveAspectRatio="none" style="width:970px;height:689px;background:#FFFFFF;" version="1.1" viewBox="0 0 970 689" width="970px" zoomAndPan="magnify"><defs/><g><!--cluster Docker Compose--><g class="cluster" data-qualified-name="Docker Compose" data-source-line="11" id="ent0004"><polygon fill="none" points="272.05,262.1,282.05,252.1,554.05,252.1,554.05,662.95,544.05,672.95,272.05,672.95,272.05,262.1" style="stroke:#1F2937;stroke-width:1;"/><line style="stroke:#1F2937;stroke-width:1;" x1="544.05" x2="554.05" y1="262.1" y2="252.1"/><line style="stroke:#1F2937;stroke-width:1;" x1="272.05" x2="544.05" y1="262.1" y2="262.1"/><line style="stroke:#1F2937;stroke-width:1;" x1="544.05" x2="544.05" y1="262.1" y2="672.95"/><text fill="#000000" font-family="sans-serif" font-size="14" font-weight="bold" lengthAdjust="spacing" textLength="132.0703" x="343.0148" y="278.0951">Docker Compose</text></g><!--entity Web--><g class="entity" data-qualified-name="Docker Compose.Web" data-source-line="12" id="ent0005"><polygon fill="#F1F1F1" points="287.97,302.1,297.97,292.1,452.1175,292.1,452.1175,344.6938,442.1175,354.6938,287.97,354.6938,287.97,302.1" style="stroke:#1F2937;stroke-width:0.5;"/><line style="stroke:#1F2937;stroke-width:0.5;" x1="442.1175" x2="452.1175" y1="302.1" y2="292.1"/><line style="stroke:#1F2937;stroke-width:0.5;" x1="287.97" x2="442.1175" y1="302.1" y2="302.1"/><line style="stroke:#1F2937;stroke-width:0.5;" x1="442.1175" x2="442.1175" y1="302.1" y2="354.6938"/><text fill="#000000" font-family="sans-serif" font-size="14" lengthAdjust="spacing" textLength="28.9502" x="302.97" y="325.0951">web</text><text fill="#000000" font-family="sans-serif" font-size="14" lengthAdjust="spacing" textLength="124.1475" x="302.97" y="341.392">Nginx + Frontend</text></g><!--entity Api--><g class="entity" data-qualified-name="Docker Compose.Api" data-source-line="13" id="ent0006"><polygon fill="#F1F1F1" points="355.76,453.23,365.76,443.23,538.3235,443.23,538.3235,495.8238,528.3235,505.8238,355.76,505.8238,355.76,453.23" style="stroke:#1F2937;stroke-width:0.5;"/><line style="stroke:#1F2937;stroke-width:0.5;" x1="528.3235" x2="538.3235" y1="453.23" y2="443.23"/><line style="stroke:#1F2937;stroke-width:0.5;" x1="355.76" x2="528.3235" y1="453.23" y2="453.23"/><line style="stroke:#1F2937;stroke-width:0.5;" x1="528.3235" x2="528.3235" y1="453.23" y2="505.8238"/><text fill="#000000" font-family="sans-serif" font-size="14" lengthAdjust="spacing" textLength="21.3555" x="370.76" y="476.2251">api</text><text fill="#000000" font-family="sans-serif" font-size="14" lengthAdjust="spacing" textLength="142.5635" x="370.76" y="492.522">Express + Socket.IO</text></g><!--entity Db--><g class="entity" data-qualified-name="Docker Compose.Db" data-source-line="14" id="ent0007"><path d="M288.54,604.86 C288.54,594.86 350.0488,594.86 350.0488,594.86 C350.0488,594.86 411.5576,594.86 411.5576,604.86 L411.5576,646.4538 C411.5576,656.4538 350.0488,656.4538 350.0488,656.4538 C350.0488,656.4538 288.54,656.4538 288.54,646.4538 L288.54,604.86" fill="#F1F1F1" style="stroke:#1F2937;stroke-width:0.5;"/><path d="M288.54,604.86 C288.54,614.86 350.0488,614.86 350.0488,614.86 C350.0488,614.86 411.5576,614.86 411.5576,604.86" fill="none" style="stroke:#1F2937;stroke-width:0.5;"/><text fill="#000000" font-family="sans-serif" font-size="14" lengthAdjust="spacing" textLength="17.7734" x="298.54" y="631.8551">db</text><text fill="#000000" font-family="sans-serif" font-size="14" lengthAdjust="spacing" textLength="103.0176" x="298.54" y="648.152">PostgreSQL 15</text></g><!--entity Cache--><g class="entity" data-qualified-name="Docker Compose.Cache" data-source-line="15" id="ent0008"><polygon fill="#F1F1F1" points="446.16,604.36,456.16,594.36,537.9286,594.36,537.9286,646.9538,527.9286,656.9538,446.16,656.9538,446.16,604.36" style="stroke:#1F2937;stroke-width:0.5;"/><line style="stroke:#1F2937;stroke-width:0.5;" x1="527.9286" x2="537.9286" y1="604.36" y2="594.36"/><line style="stroke:#1F2937;stroke-width:0.5;" x1="446.16" x2="527.9286" y1="604.36" y2="604.36"/><line style="stroke:#1F2937;stroke-width:0.5;" x1="527.9286" x2="527.9286" y1="604.36" y2="656.9538"/><text fill="#000000" font-family="sans-serif" font-size="14" lengthAdjust="spacing" textLength="34.4395" x="461.16" y="627.3551">redis</text><text fill="#000000" font-family="sans-serif" font-size="14" lengthAdjust="spacing" textLength="51.7686" x="461.16" y="643.652">Redis 7</text></g><!--entity EndUser--><g class="entity" data-qualified-name="EndUser" data-source-line="8" id="ent0002"><ellipse cx="542.0486" cy="14" fill="#F1F1F1" rx="8" ry="8" style="stroke:#181818;stroke-width:0.5;"/><path d="M542.0486,22 L542.0486,49 M529.0486,30 L555.0486,30 M542.0486,49 L529.0486,64 M542.0486,49 L555.0486,64" fill="none" style="stroke:#181818;stroke-width:0.5;"/><text fill="#000000" font-family="sans-serif" font-size="14" lengthAdjust="spacing" textLength="80.6572" x="501.72" y="78.4951">Nguoi dung</text></g><!--entity Browser--><g class="entity" data-qualified-name="Browser" data-source-line="10" id="ent0003"><polygon fill="#F1F1F1" points="493.53,152.8,503.53,142.8,590.5691,142.8,590.5691,179.0969,580.5691,189.0969,493.53,189.0969,493.53,152.8" style="stroke:#1F2937;stroke-width:0.5;"/><line style="stroke:#1F2937;stroke-width:0.5;" x1="580.5691" x2="590.5691" y1="152.8" y2="142.8"/><line style="stroke:#1F2937;stroke-width:0.5;" x1="493.53" x2="580.5691" y1="152.8" y2="152.8"/><line style="stroke:#1F2937;stroke-width:0.5;" x1="580.5691" x2="580.5691" y1="152.8" y2="189.0969"/><text fill="#000000" font-family="sans-serif" font-size="14" lengthAdjust="spacing" textLength="57.0391" x="508.53" y="175.7951">Browser</text></g><!--entity Swagger--><g class="entity" data-qualified-name="Swagger" data-source-line="18" id="ent0009"><path d="M708.5969,300.365 C712.1994,295.7634 716.9687,296.4526 719.4821,301.5831 C721.6366,295.5162 727.2493,293.7647 731.3157,299.6978 C735.497,293.0504 740.1698,292.4427 744.4439,299.6095 C747.8653,295.4847 751.9398,294.4695 754.7692,300.228 C758.3202,294.1464 762.5287,293.8845 766.8473,299.4307 C770.7664,294.4592 775.9689,293.4175 779.03,300.3116 C782.8786,294.7676 788.4622,295.5412 791.0845,301.587 C793.7241,296.4933 798.0436,296.6584 801.0613,301.1953 C808.006,301.843 809.7227,306.9767 805.4671,312.1351 C811.9457,314.8794 812.24,321.1755 806.5277,324.9304 C811.28,328.6339 810.3928,333.7352 805.289,336.3717 C810.085,341.9145 807.924,345.975 801.3476,347.4842 C799.1753,352.6803 795.7147,353.3711 791.4117,349.9373 C788.3611,357.0313 783.3093,358.7246 777.8911,352.3064 C776.4326,358.0639 770.7741,359.3437 766.6843,355.3217 C764.0652,361.5398 759.1734,360.9978 755.7414,356.1237 C750.9535,360.9015 746.5162,360.3276 742.8653,354.7147 C738.2885,359.7047 733.6014,359.7214 730.9176,352.8139 C726.0474,357.19 721.2019,355.0918 719.8,349.0962 C716.5333,354.1589 711.9345,353.1448 709.2634,348.4528 C702.2611,345.8214 700.933,341.2151 706.1187,335.6014 C699.0566,333.7068 698.4446,328.0416 703.3918,323.4517 C698.6855,319.9848 699.1776,315.5465 704.2725,312.8976 C699.6717,306.8258 702.0036,302.5743 708.5969,300.365" fill="#F1F1F1" style="stroke:#1F2937;stroke-width:0.5;"/><text fill="#000000" font-family="sans-serif" font-size="14" lengthAdjust="spacing" textLength="79.8848" x="714.1" y="320.0951">Swagger UI</text><text fill="#000000" font-family="sans-serif" font-size="14" lengthAdjust="spacing" textLength="63.5674" x="714.1" y="336.392">/api-docs</text></g><!--entity Health--><g class="entity" data-qualified-name="Health" data-source-line="19" id="ent0010"><path d="M852.542,301.9986 C856.1615,295.1209 861.2359,294.9814 865.8111,301.0166 C869.3145,295.4482 874.3148,295.9751 877.9451,300.8696 C880.6841,294.8634 886.3185,295.176 889.6408,300.2541 C894.2062,294.6098 898.2786,292.8365 903.0059,300.0862 C906.5952,294.0338 911.1444,295.1793 914.7151,300.1059 C918.1464,293.8406 924.9116,293.3328 928.6279,299.7942 C933.5163,294.0444 938.6343,294.3655 941.4126,301.835 C945.1186,296.1304 949.9936,295.757 954.3991,301.0056 C959.0926,304.7652 959.0861,308.4818 954.4038,312.2453 C960.5378,315.2729 963.0398,320.2994 956.6877,325.4813 C960.8958,328.9516 959.8674,333.0124 955.1903,335.0994 C960.0966,340.163 960.0766,344.8665 952.6057,347.3103 C949.4898,352.9877 945.5248,352.7376 941.9707,347.7473 C937.9953,354.8431 932.4672,353.0872 928.6382,347.5922 C926.6298,354.6979 921.1236,355.0805 916.7961,349.8116 C911.8006,356.9622 907.4403,356.3668 902.8739,349.3889 C898.16,355.3038 894.6164,354.0424 891.2531,348.0686 C887.0459,355.4718 881.2276,354.3861 877.2529,347.8354 C873.1184,354.2591 868.3552,353.5765 864.7469,347.3166 C861.7137,352.4453 856.9351,353.8708 852.9189,348.415 C845.4933,345.5099 845.0096,340.4527 851.0569,335.5913 C845.3202,332.4868 846.867,327.6536 851.4008,324.8789 C846.6232,321.1922 846.8217,315.2318 852.882,312.8835 C847.8972,310.0666 846.7363,305.1526 852.542,301.9986" fill="#F1F1F1" style="stroke:#1F2937;stroke-width:0.5;"/><text fill="#000000" font-family="sans-serif" font-size="14" lengthAdjust="spacing" textLength="86.96" x="858.57" y="320.0951">Healthcheck</text><text fill="#000000" font-family="sans-serif" font-size="14" lengthAdjust="spacing" textLength="49.0342" x="858.57" y="336.392">/health</text></g><g class="entity" data-qualified-name="GMN21" data-source-line="33" id="ent0022"><path d="M573.15,431.69 L573.15,470.52 L538.82,474.52 L573.15,478.52 L573.15,517.3541 A0,0 0 0 0 573.15,517.3541 L774.9439,517.3541 A0,0 0 0 0 774.9439,517.3541 L774.9439,441.69 L764.9439,431.69 L573.15,431.69 A0,0 0 0 0 573.15,431.69" fill="#FEFFDD" style="stroke:#181818;stroke-width:0.5;"/><path d="M764.9439,431.69 L764.9439,441.69 L774.9439,441.69 L764.9439,431.69" fill="#FEFFDD" style="stroke:#181818;stroke-width:0.5;"/><text fill="#000000" font-family="sans-serif" font-size="13" lengthAdjust="spacing" textLength="77.5112" x="579.15" y="448.7569">Cong chinh:</text><text fill="#000000" font-family="sans-serif" font-size="13" lengthAdjust="spacing" textLength="101.4229" x="579.15" y="463.8897">- 5000 backend</text><text fill="#000000" font-family="sans-serif" font-size="13" lengthAdjust="spacing" textLength="180.7939" x="579.15" y="479.0225">- auth, wallets, transactions</text><text fill="#000000" font-family="sans-serif" font-size="13" lengthAdjust="spacing" textLength="157.4854" x="579.15" y="494.1553">- families, goals, reports</text><text fill="#000000" font-family="sans-serif" font-size="13" lengthAdjust="spacing" textLength="110.6777" x="579.15" y="509.2881">- admin, forecast</text></g><g class="entity" data-qualified-name="GMN24" data-source-line="41" id="ent0025"><path d="M6,439.26 L6,509.7913 A0,0 0 0 0 6,509.7913 L256.0933,509.7913 A0,0 0 0 0 256.0933,509.7913 L256.0933,449.26 L246.0933,439.26 L190.48,439.26 L320.82,355.11 L182.48,439.26 L6,439.26 A0,0 0 0 0 6,439.26" fill="#FEFFDD" style="stroke:#181818;stroke-width:0.5;"/><path d="M246.0933,439.26 L246.0933,449.26 L256.0933,449.26 L246.0933,439.26" fill="#FEFFDD" style="stroke:#181818;stroke-width:0.5;"/><text fill="#000000" font-family="sans-serif" font-size="13" lengthAdjust="spacing" textLength="101.7466" x="12" y="456.3269">Frontend route:</text><text fill="#000000" font-family="sans-serif" font-size="13" lengthAdjust="spacing" textLength="159.7007" x="12" y="471.4597">/, /transactions, /wallets,</text><text fill="#000000" font-family="sans-serif" font-size="13" lengthAdjust="spacing" textLength="155.2446" x="12" y="486.5925">/goals, /family, /reports,</text><text fill="#000000" font-family="sans-serif" font-size="13" lengthAdjust="spacing" textLength="229.0933" x="12" y="501.7253">/settings, /profile, /forecast, /admin</text></g><!--link EndUser to Browser--><g class="link" data-entity-1="ent0002" data-entity-2="ent0003" data-link-type="dependency" data-source-line="21" id="lnk11"><path d="M542.05,82.06 C542.05,101.92 542.05,119.67 542.05,136.64" fill="none" id="EndUser-to-Browser" style="stroke:#475569;stroke-width:1;"/><polygon fill="#475569" points="542.05,142.64,546.05,133.64,542.05,137.64,538.05,133.64,542.05,142.64" style="stroke:#475569;stroke-width:1;"/></g><!--link Browser to Web--><g class="link" data-entity-1="ent0003" data-entity-2="ent0005" data-link-type="dependency" data-source-line="22" id="lnk12"><path d="M493.26,185.78 C475.28,194.22 455.54,205.4 440.05,219.1 C416.84,239.62 400.6129,264.189 388.2629,286.529" fill="none" id="Browser-to-Web" style="stroke:#475569;stroke-width:1;"/><polygon fill="#475569" points="385.36,291.78,393.215,285.8387,387.7791,287.4041,386.2136,281.9682,385.36,291.78" style="stroke:#475569;stroke-width:1;"/><text fill="#000000" font-family="sans-serif" font-size="13" lengthAdjust="spacing" textLength="54.1709" x="441.05" y="232.1669">HTTP 80</text></g><!--link Web to Api--><g class="link" data-entity-1="ent0005" data-entity-2="ent0006" data-link-type="dependency" data-source-line="23" id="lnk13"><path d="M385.81,354.93 C399.06,380.58 415.1365,411.7291 428.4165,437.4391" fill="none" id="Web-to-Api" style="stroke:#475569;stroke-width:1;"/><polygon fill="#475569" points="431.17,442.77,430.5936,432.938,428.8754,438.3276,423.4858,436.6094,431.17,442.77" style="stroke:#475569;stroke-width:1;"/><text fill="#000000" font-family="sans-serif" font-size="13" lengthAdjust="spacing" textLength="24.21" x="409.55" y="397.7569">/api</text></g><!--link Browser to Api--><g class="link" data-entity-1="ent0003" data-entity-2="ent0006" data-link-type="dependency" data-source-line="24" id="lnk14"><path d="M535.06,189.49 C518.26,243.7 477.3654,375.6687 458.2954,437.2287" fill="none" id="Browser-to-Api" style="stroke:#475569;stroke-width:1;"/><polygon fill="#475569" points="456.52,442.96,463.004,435.5467,457.9995,438.1839,455.3623,433.1794,456.52,442.96" style="stroke:#475569;stroke-width:1;"/><text fill="#000000" font-family="sans-serif" font-size="13" lengthAdjust="spacing" textLength="140.0166" x="518.42" y="327.9669">WebSocket / realtime</text></g><!--link Api to Db--><g class="link" data-entity-1="ent0006" data-entity-2="ent0007" data-link-type="dependency" data-source-line="25" id="lnk15"><path d="M425.77,506.09 C417.05,518.77 406.94,533.69 398.05,547.36 C388.05,562.71 380.4034,574.9093 371.5834,589.2493" fill="none" id="Api-to-Db" style="stroke:#475569;stroke-width:1;"/><polygon fill="#475569" points="368.44,594.36,376.5622,588.7896,371.0595,590.1011,369.748,584.5984,368.44,594.36" style="stroke:#475569;stroke-width:1;"/><text fill="#000000" font-family="sans-serif" font-size="13" lengthAdjust="spacing" textLength="62.7847" x="399.05" y="560.4269">Sequelize</text></g><!--link Api to Cache--><g class="link" data-entity-1="ent0006" data-entity-2="ent0008" data-link-type="dependency" data-source-line="26" id="lnk16"><path d="M456.26,506.06 C464,531.71 473.2763,562.4459 481.0363,588.1559" fill="none" id="Api-to-Cache" style="stroke:#475569;stroke-width:1;"/><polygon fill="#475569" points="482.77,593.9,483.9988,584.1281,481.3252,589.1133,476.34,586.4397,482.77,593.9" style="stroke:#475569;stroke-width:1;"/><text fill="#000000" font-family="sans-serif" font-size="13" lengthAdjust="spacing" textLength="75.5054" x="474.58" y="560.4269">Redis client</text></g><!--link Browser to Swagger--><g class="link" data-entity-1="ent0003" data-entity-2="ent0009" data-link-type="dependency" data-source-line="27" id="lnk17"><path d="M572.87,189.55 C609.62,216.5 666.3715,258.1019 707.3915,288.1819" fill="none" id="Browser-to-Swagger" style="stroke:#475569;stroke-width:1;"/><polygon fill="#475569" points="712.23,291.73,707.3376,283.1822,708.1979,288.7733,702.6069,289.6336,712.23,291.73" style="stroke:#475569;stroke-width:1;"/></g><!--link Swagger to Api--><g class="link" data-entity-1="ent0009" data-entity-2="ent0006" data-link-type="dependency" data-source-line="28" id="lnk18"><path d="M698.81,351.23 C645.81,376.97 571.2467,413.1879 515.7167,440.1679" fill="none" id="Swagger-to-Api" style="stroke:#475569;stroke-width:1;"/><polygon fill="#475569" points="510.32,442.79,520.1631,442.4547,514.8173,440.6049,516.667,435.2591,510.32,442.79" style="stroke:#475569;stroke-width:1;"/></g><!--link Browser to Health--><g class="link" data-entity-1="ent0003" data-entity-2="ent0010" data-link-type="dependency" data-source-line="29" id="lnk19"><path d="M590.81,172.21 C649.95,180.32 751.01,199.85 826.05,244.1 C846.61,256.22 861.4804,270.7862 875.2004,287.1162" fill="none" id="Browser-to-Health" style="stroke:#475569;stroke-width:1;"/><polygon fill="#475569" points="879.06,291.71,876.3331,282.2462,875.8437,287.8818,870.208,287.3923,879.06,291.71" style="stroke:#475569;stroke-width:1;"/></g><!--link Health to Api--><g class="link" data-entity-1="ent0010" data-entity-2="ent0006" data-link-type="dependency" data-source-line="30" id="lnk20"><path d="M843.35,348.48 C837.53,350.66 831.69,352.77 826.05,354.69 C707.94,394.96 674.41,392.19 556.05,431.69 C545.86,435.09 540.8396,436.8045 530.3696,440.6645" fill="none" id="Health-to-Api" style="stroke:#475569;stroke-width:1;"/><polygon fill="#475569" points="524.74,442.74,534.5681,443.3798,529.4313,441.0104,531.8007,435.8737,524.74,442.74" style="stroke:#475569;stroke-width:1;"/></g><?plantuml-src XPDHRzCm4CVV_IbEuP6MT40fwmFIrcxQ93G6tSHBNzpucbXDVC5sb07YktDsdAwJa7Yox_w_tFtFiTr1crPQsS1E5eVIKcVKYcgoq5VQet17tLLIKQzD2NjPkrFbmbhgXuzUlL_Cvn_EJqH32Y_9AhI9EBj-U_vkSK8ewULEklzGHKsT-XSYPE4vpExAZZIepfGPI0TNHZqwj4840v1TiaKEevJsILbJSK0BAsfQSfZ1Rm4mA3tkjkQkrEO9NiEr9UFHg5ZXE-wEb6prrbmzjHQTOsuJolatjryYUD5g1iS98LDSyPwSBorkldw6itcari_LB2hjjkPRM60HrPKiAXH_X8X70DccbsN9ZXzljoRdxbD5XOjaKaRm1cNjA_wuE31PnIXoWo14EYEOJZyT3oMjCSTZmX9k7XxkuUDCX2XaUIREXiulu27Dq702a8CDRNI38aW1MOTo6_pHOQr_FQVZWAmCGnUrHkDVb1xd6YTFxLumQQPXEHByZps2rMNbWVOnjIA-maMbJRKKKvZFPhDuzVdNSYWxNqsWbtMDtat0MsaStozDnh6wburcTooKn6zWmXEsP7sGf6gqcS2UB1RIUS7b8FHE3dRaFJN1GhWwurq2VcuUboAVG7xQYiFHWiXJgpms_ycRr9GbXzxpWmngQsclQmnSii3RQEfevIy0?></g></svg>