<?plantuml 1.2026.2?><svg xmlns="http://www.w3.org/2000/svg" xmlns:xlink="http://www.w3.org/1999/xlink" contentStyleType="text/css" data-diagram-type="DESCRIPTION" height="1387px" preserveAspectRatio="none" style="width:447px;height:1387px;background:#FFFFFF;" version="1.1" viewBox="0 0 447 1387" width="447px" zoomAndPan="magnify"><defs/><g><!--cluster Junkio Expense Tracker--><g class="cluster" data-qualified-name="Junkio Expense Tracker" data-source-line="21" id="ent0006"><rect fill="none" height="1374" rx="2.5" ry="2.5" style="stroke:#181818;stroke-width:1;" width="228.93" x="212.09" y="7"/><text fill="#000000" font-family="sans-serif" font-size="14" font-weight="bold" lengthAdjust="spacing" textLength="184.4336" x="234.3382" y="21.9951">Junkio Expense Tracker</text></g><!--entity UC01--><g class="entity" data-qualified-name="Junkio Expense Tracker.UC01" data-source-line="22" id="ent0007"><ellipse cx="326.5512" cy="197.9982" fill="#F8FAFC" rx="78.7912" ry="18.1582" style="stroke:#1F2937;stroke-width:0.5;"/><text fill="#000000" font-family="sans-serif" font-size="14" lengthAdjust="spacing" textLength="127.8184" x="262.642" y="202.6467">Dang ky tai khoan</text></g><!--entity UC02--><g class="entity" data-qualified-name="Junkio Expense Tracker.UC02" data-source-line="23" id="ent0008"><ellipse cx="326.5525" cy="266.0036" fill="#F8FAFC" rx="57.2925" ry="14.5236" style="stroke:#1F2937;stroke-width:0.5;"/><text fill="#000000" font-family="sans-serif" font-size="14" lengthAdjust="spacing" textLength="76.7813" x="288.1619" y="270.6521">Dang nhap</text></g><!--entity UC03--><g class="entity" data-qualified-name="Junkio Expense Tracker.UC03" data-source-line="24" id="ent0009"><ellipse cx="326.5525" cy="59.0025" fill="#F8FAFC" rx="70.8125" ry="16.5625" style="stroke:#1F2937;stroke-width:0.5;"/><text fill="#000000" font-family="sans-serif" font-size="14" lengthAdjust="spacing" textLength="108.418" x="272.3436" y="63.6509">Quen mat khau</text></g><!--entity UC04--><g class="entity" data-qualified-name="Junkio Expense Tracker.UC04" data-source-line="25" id="ent0010"><ellipse cx="326.5548" cy="128.003" fill="#F8FAFC" rx="74.1648" ry="17.233" style="stroke:#1F2937;stroke-width:0.5;"/><text fill="#000000" font-family="sans-serif" font-size="14" lengthAdjust="spacing" textLength="116.6963" x="268.2067" y="132.6514">Dat lai mat khau</text></g><!--entity UC05--><g class="entity" data-qualified-name="Junkio Expense Tracker.UC05" data-source-line="27" id="ent0011"><ellipse cx="326.5462" cy="425.9999" fill="#F8FAFC" rx="66.9962" ry="24.6899" style="stroke:#1F2937;stroke-width:0.5;"/><text fill="#000000" font-family="sans-serif" font-size="14" lengthAdjust="spacing" textLength="96.168" x="278.4623" y="424.4837">Quan ly ho so</text><text fill="#000000" font-family="sans-serif" font-size="14" lengthAdjust="spacing" textLength="68.8857" x="292.1034" y="440.7806">va cai dat</text></g><!--entity UC06--><g class="entity" data-qualified-name="Junkio Expense Tracker.UC06" data-source-line="28" id="ent0012"><ellipse cx="326.5507" cy="587.9981" fill="#F8FAFC" rx="68.2407" ry="16.0481" style="stroke:#1F2937;stroke-width:0.5;"/><text fill="#000000" font-family="sans-serif" font-size="14" lengthAdjust="spacing" textLength="101.9102" x="275.5956" y="592.6466">Quan ly vi tien</text></g><!--entity UC07--><g class="entity" data-qualified-name="Junkio Expense Tracker.UC07" data-source-line="29" id="ent0013"><ellipse cx="326.5521" cy="503.0024" fill="#F8FAFC" rx="76.4121" ry="17.6824" style="stroke:#1F2937;stroke-width:0.5;"/><text fill="#000000" font-family="sans-serif" font-size="14" lengthAdjust="spacing" textLength="122.1377" x="265.4832" y="507.6508">Quan ly giao dich</text></g><!--entity UC08--><g class="entity" data-qualified-name="Junkio Expense Tracker.UC08" data-source-line="30" id="ent0014"><ellipse cx="326.5519" cy="673.0004" fill="#F8FAFC" rx="75.5019" ry="17.5004" style="stroke:#1F2937;stroke-width:0.5;"/><text fill="#000000" font-family="sans-serif" font-size="14" lengthAdjust="spacing" textLength="119.9434" x="266.5802" y="677.6488">Quan ly muc tieu</text></g><!--entity UC09--><g class="entity" data-qualified-name="Junkio Expense Tracker.UC09" data-source-line="31" id="ent0015"><ellipse cx="326.5456" cy="751" fill="#F8FAFC" rx="81.0156" ry="25.16" style="stroke:#1F2937;stroke-width:0.5;"/><text fill="#000000" font-family="sans-serif" font-size="14" lengthAdjust="spacing" textLength="114.748" x="269.1716" y="748.781">Quan ly gia dinh</text><text fill="#000000" font-family="sans-serif" font-size="14" lengthAdjust="spacing" textLength="95.0127" x="279.0392" y="765.0778">va quy chung</text></g><!--entity UC10--><g class="entity" data-qualified-name="Junkio Expense Tracker.UC10" data-source-line="32" id="ent0016"><ellipse cx="326.5547" cy="826.0009" fill="#F8FAFC" rx="64.3047" ry="15.2609" style="stroke:#1F2937;stroke-width:0.5;"/><text fill="#000000" font-family="sans-serif" font-size="14" lengthAdjust="spacing" textLength="91.6152" x="280.7471" y="830.6494">Xem bao cao</text></g><!--entity UC11--><g class="entity" data-qualified-name="Junkio Expense Tracker.UC11" data-source-line="33" id="ent0017"><ellipse cx="326.546" cy="891.0012" fill="#F8FAFC" rx="61.706" ry="14.7412" style="stroke:#1F2937;stroke-width:0.5;"/><text fill="#000000" font-family="sans-serif" font-size="14" lengthAdjust="spacing" textLength="84.5332" x="284.2794" y="895.6496">Xem du bao</text></g><!--entity UC12--><g class="entity" data-qualified-name="Junkio Expense Tracker.UC12" data-source-line="34" id="ent0018"><ellipse cx="326.5469" cy="341.0041" fill="#F8FAFC" rx="98.4669" ry="25.0141" style="stroke:#1F2937;stroke-width:0.5;"/><text fill="#000000" font-family="sans-serif" font-size="14" lengthAdjust="spacing" textLength="112.417" x="270.3384" y="336.007">Nhan thong bao</text><text fill="#000000" font-family="sans-serif" font-size="14" lengthAdjust="spacing" textLength="141.3467" x="255.8736" y="352.3039">va dong bo realtime</text></g><!--entity UC13--><g class="entity" data-qualified-name="Junkio Expense Tracker.UC13" data-source-line="36" id="ent0019"><ellipse cx="326.554" cy="961.9988" fill="#F8FAFC" rx="92.294" ry="20.8588" style="stroke:#1F2937;stroke-width:0.5;"/><text fill="#000000" font-family="sans-serif" font-size="14" lengthAdjust="spacing" textLength="158.915" x="247.0965" y="966.6472">Xem dashboard admin</text></g><!--entity UC14--><g class="entity" data-qualified-name="Junkio Expense Tracker.UC14" data-source-line="37" id="ent0020"><ellipse cx="326.5525" cy="1053.9965" fill="#F8FAFC" rx="84.1825" ry="19.2365" style="stroke:#1F2937;stroke-width:0.5;"/><text fill="#000000" font-family="sans-serif" font-size="14" lengthAdjust="spacing" textLength="140.4375" x="256.3338" y="1058.6449">Quan tri nguoi dung</text></g><!--entity UC15--><g class="entity" data-qualified-name="Junkio Expense Tracker.UC15" data-source-line="38" id="ent0021"><ellipse cx="326.5522" cy="1125.9964" fill="#F8FAFC" rx="75.9322" ry="17.5864" style="stroke:#1F2937;stroke-width:0.5;"/><text fill="#000000" font-family="sans-serif" font-size="14" lengthAdjust="spacing" textLength="120.9824" x="266.061" y="1130.6449">Xem activity logs</text></g><!--entity UC16--><g class="entity" data-qualified-name="Junkio Expense Tracker.UC16" data-source-line="40" id="ent0022"><ellipse cx="326.5539" cy="1196.0048" fill="#F8FAFC" rx="76.3239" ry="17.6648" style="stroke:#1F2937;stroke-width:0.5;"/><text fill="#000000" font-family="sans-serif" font-size="14" lengthAdjust="spacing" textLength="121.9258" x="265.591" y="1200.6532">Dong bo realtime</text></g><!--entity UC17--><g class="entity" data-qualified-name="Junkio Expense Tracker.UC17" data-source-line="41" id="ent0023"><ellipse cx="326.5465" cy="1264.0013" fill="#F8FAFC" rx="66.2065" ry="15.6413" style="stroke:#1F2937;stroke-width:0.5;"/><text fill="#000000" font-family="sans-serif" font-size="14" lengthAdjust="spacing" textLength="96.6465" x="278.2233" y="1268.6497">Chay cron job</text></g><!--entity UC18--><g class="entity" data-qualified-name="Junkio Expense Tracker.UC18" data-source-line="42" id="ent0024"><ellipse cx="326.5549" cy="1340.0024" fill="#F8FAFC" rx="86.2049" ry="25.4124" style="stroke:#1F2937;stroke-width:0.5;"/><text fill="#000000" font-family="sans-serif" font-size="14" lengthAdjust="spacing" textLength="121.0029" x="266.0535" y="1337.4133">Phuc vu Swagger</text><text fill="#000000" font-family="sans-serif" font-size="14" lengthAdjust="spacing" textLength="106.6201" x="273.2449" y="1353.7102">va healthcheck</text></g><!--entity Guest--><g class="entity" data-qualified-name="Guest" data-source-line="16" id="ent0002"><ellipse cx="53.54" cy="141.85" fill="#E2E8F0" rx="16" ry="16" style="stroke:#1F2937;stroke-width:0.5;"/><path d="M53.54,161.85 C57.54,161.85 60.54,161.85 64.54,157.85 C72.54,157.85 80.54,165.85 80.54,173.85 L80.54,177.85 C80.54,181.85 76.54,185.85 72.54,185.85 L34.54,185.85 C30.54,185.85 26.54,181.85 26.54,177.85 L26.54,173.85 C26.54,165.85 34.54,157.85 42.54,157.85 C46.54,161.85 49.54,161.85 53.54,161.85" fill="#E2E8F0" style="stroke:#1F2937;stroke-width:0.5;"/><text fill="#000000" font-family="sans-serif" font-size="14" lengthAdjust="spacing" textLength="43.2031" x="31.9384" y="199.3451">Khach</text></g><!--entity User--><g class="entity" data-qualified-name="User" data-source-line="17" id="ent0003"><ellipse cx="53.5486" cy="608.85" fill="#E2E8F0" rx="16" ry="16" style="stroke:#1F2937;stroke-width:0.5;"/><path d="M53.5486,628.85 C57.5486,628.85 60.5486,628.85 64.5486,624.85 C72.5486,624.85 80.5486,632.85 80.5486,640.85 L80.5486,644.85 C80.5486,648.85 76.5486,652.85 72.5486,652.85 L34.5486,652.85 C30.5486,652.85 26.5486,648.85 26.5486,644.85 L26.5486,640.85 C26.5486,632.85 34.5486,624.85 42.5486,624.85 C46.5486,628.85 49.5486,628.85 53.5486,628.85" fill="#E2E8F0" style="stroke:#1F2937;stroke-width:0.5;"/><text fill="#000000" font-family="sans-serif" font-size="14" lengthAdjust="spacing" textLength="80.6572" x="13.22" y="666.3451">Nguoi dung</text></g><!--entity Admin--><g class="entity" data-qualified-name="Admin" data-source-line="18" id="ent0004"><ellipse cx="53.54" cy="1041.85" fill="#E2E8F0" rx="16" ry="16" style="stroke:#1F2937;stroke-width:0.5;"/><path d="M53.54,1061.85 C57.54,1061.85 60.54,1061.85 64.54,1057.85 C72.54,1057.85 80.54,1065.85 80.54,1073.85 L80.54,1077.85 C80.54,1081.85 76.54,1085.85 72.54,1085.85 L34.54,1085.85 C30.54,1085.85 26.54,1081.85 26.54,1077.85 L26.54,1073.85 C26.54,1065.85 34.54,1057.85 42.54,1057.85 C46.54,1061.85 49.54,1061.85 53.54,1061.85" fill="#E2E8F0" style="stroke:#1F2937;stroke-width:0.5;"/><text fill="#000000" font-family="sans-serif" font-size="14" lengthAdjust="spacing" textLength="44.8643" x="31.1079" y="1099.3451">Admin</text></g><!--entity System--><g class="entity" data-qualified-name="System" data-source-line="19" id="ent0005"><ellipse cx="53.5439" cy="1241.85" fill="#E2E8F0" rx="16" ry="16" style="stroke:#1F2937;stroke-width:0.5;"/><path d="M53.5439,1261.85 C57.5439,1261.85 60.5439,1261.85 64.5439,1257.85 C72.5439,1257.85 80.5439,1265.85 80.5439,1273.85 L80.5439,1277.85 C80.5439,1281.85 76.5439,1285.85 72.5439,1285.85 L34.5439,1285.85 C30.5439,1285.85 26.5439,1281.85 26.5439,1277.85 L26.5439,1273.85 C26.5439,1265.85 34.5439,1257.85 42.5439,1257.85 C46.5439,1261.85 49.5439,1261.85 53.5439,1261.85" fill="#E2E8F0" style="stroke:#1F2937;stroke-width:0.5;"/><text fill="#000000" font-family="sans-serif" font-size="14" lengthAdjust="spacing" textLength="95.0879" x="6" y="1299.3451">He thong nen</text></g><!--link Guest to UC01--><g class="link" data-entity-1="ent0002" data-entity-2="ent0007" data-link-type="dependency" data-source-line="45" id="lnk25"><path d="M81.52,167.38 C121.95,172.46 193.6366,181.4539 250.5266,188.5839" fill="none" id="Guest-to-UC01" style="stroke:#475569;stroke-width:1;"/><polygon fill="#475569" points="256.48,189.33,248.0473,184.2418,251.5188,188.7082,247.0524,192.1797,256.48,189.33" style="stroke:#475569;stroke-width:1;"/></g><!--link Guest to UC02--><g class="link" data-entity-1="ent0002" data-entity-2="ent0008" data-link-type="dependency" data-source-line="46" id="lnk26"><path d="M81.48,178.42 C110.95,193.76 159.89,217.98 204.09,234 C229.41,243.18 252.7336,249.5583 276.1336,255.1383" fill="none" id="Guest-to-UC02" style="stroke:#475569;stroke-width:1;"/><polygon fill="#475569" points="281.97,256.53,274.1433,250.5515,277.1064,255.3702,272.2876,258.3333,281.97,256.53" style="stroke:#475569;stroke-width:1;"/></g><!--link Guest to UC03--><g class="link" data-entity-1="ent0002" data-entity-2="ent0009" data-link-type="dependency" data-source-line="47" id="lnk27"><path d="M81.2,149.4 C95.79,141.58 114.28,131.95 131.09,124 C162.96,108.94 170.82,104.66 204.09,93 C227.65,84.74 248.5116,78.6324 270.8416,72.6924" fill="none" id="Guest-to-UC03" style="stroke:#475569;stroke-width:1;"/><polygon fill="#475569" points="276.64,71.15,266.9142,69.5981,271.808,72.4354,268.9707,77.3292,276.64,71.15" style="stroke:#475569;stroke-width:1;"/></g><!--link Guest to UC04--><g class="link" data-entity-1="ent0002" data-entity-2="ent0010" data-link-type="dependency" data-source-line="48" id="lnk28"><path d="M81.52,160.42 C123.09,154.89 198.0423,144.9407 255.2823,137.3307" fill="none" id="Guest-to-UC04" style="stroke:#475569;stroke-width:1;"/><polygon fill="#475569" points="261.23,136.54,251.7813,133.761,256.2736,137.1989,252.8357,141.6912,261.23,136.54" style="stroke:#475569;stroke-width:1;"/></g><!--link User to UC05--><g class="link" data-entity-1="ent0003" data-entity-2="ent0011" data-link-type="dependency" data-source-line="50" id="lnk29"><path d="M81.44,591.87 C108.52,555.16 153.46,501.09 204.09,468 C223.79,455.12 242.1532,447.4776 263.6632,440.8876" fill="none" id="User-to-UC05" style="stroke:#475569;stroke-width:1;"/><polygon fill="#475569" points="269.4,439.13,259.6231,437.9418,264.6193,440.5946,261.9665,445.5909,269.4,439.13" style="stroke:#475569;stroke-width:1;"/></g><!--link User to UC06--><g class="link" data-entity-1="ent0003" data-entity-2="ent0012" data-link-type="dependency" data-source-line="51" id="lnk30"><path d="M94.24,624.7 C140.33,617.39 210.7742,606.2106 263.0642,597.9106" fill="none" id="User-to-UC06" style="stroke:#475569;stroke-width:1;"/><polygon fill="#475569" points="268.99,596.97,259.4742,594.4304,264.0518,597.7538,260.7284,602.3315,268.99,596.97" style="stroke:#475569;stroke-width:1;"/></g><!--link User to UC07--><g class="link" data-entity-1="ent0003" data-entity-2="ent0013" data-link-type="dependency" data-source-line="52" id="lnk31"><path d="M94.36,607.88 C106.09,601.27 119.02,594.19 131.09,588 C183.71,561.01 241.2271,536.7081 280.9671,520.6481" fill="none" id="User-to-UC07" style="stroke:#475569;stroke-width:1;"/><polygon fill="#475569" points="286.53,518.4,276.6869,518.0636,281.8942,520.2734,279.6844,525.4808,286.53,518.4" style="stroke:#475569;stroke-width:1;"/></g><!--link User to UC08--><g class="link" data-entity-1="ent0003" data-entity-2="ent0014" data-link-type="dependency" data-source-line="53" id="lnk32"><path d="M94.24,637.15 C138.57,644.02 204.9708,654.3108 256.9608,662.3708" fill="none" id="User-to-UC08" style="stroke:#475569;stroke-width:1;"/><polygon fill="#475569" points="262.89,663.29,254.609,657.9584,257.949,662.524,253.3834,665.864,262.89,663.29" style="stroke:#475569;stroke-width:1;"/></g><!--link User to UC09--><g class="link" data-entity-1="ent0003" data-entity-2="ent0015" data-link-type="dependency" data-source-line="54" id="lnk33"><path d="M75.15,669.93 C88.29,690.72 107.31,714.69 131.09,728 C165.8,747.43 203.4037,753.69 240.5237,754.99" fill="none" id="User-to-UC09" style="stroke:#475569;stroke-width:1;"/><polygon fill="#475569" points="246.52,755.2,237.6655,750.8874,241.5231,755.025,237.3855,758.8825,246.52,755.2" style="stroke:#475569;stroke-width:1;"/></g><!--link User to UC10--><g class="link" data-entity-1="ent0003" data-entity-2="ent0016" data-link-type="dependency" data-source-line="55" id="lnk34"><path d="M60.81,669.93 C69.38,709.63 88.83,769.68 131.09,801 C170.2,829.98 220.2953,834.6418 262.1953,832.8818" fill="none" id="User-to-UC10" style="stroke:#475569;stroke-width:1;"/><polygon fill="#475569" points="268.19,832.63,259.0301,829.0112,263.1944,832.8398,259.3658,837.0042,268.19,832.63" style="stroke:#475569;stroke-width:1;"/></g><!--link User to UC11--><g class="link" data-entity-1="ent0003" data-entity-2="ent0017" data-link-type="dependency" data-source-line="56" id="lnk35"><path d="M55.06,669.78 C58.05,723.16 71.95,818.2 131.09,867 C170.44,899.48 224.4584,902.6094 267.3984,899.2394" fill="none" id="User-to-UC11" style="stroke:#475569;stroke-width:1;"/><polygon fill="#475569" points="273.38,898.77,264.0946,895.4864,268.3953,899.1612,264.7206,903.4619,273.38,898.77" style="stroke:#475569;stroke-width:1;"/></g><!--link User to UC12--><g class="link" data-entity-1="ent0003" data-entity-2="ent0018" data-link-type="dependency" data-source-line="57" id="lnk36"><path d="M67.04,592.07 C86.88,536.8 131,436.49 204.09,384 C219.17,373.17 231.5942,366.8711 249.1342,360.5611" fill="none" id="User-to-UC12" style="stroke:#475569;stroke-width:1;"/><polygon fill="#475569" points="254.78,358.53,244.9573,357.8127,250.0752,360.2226,247.6654,365.3404,254.78,358.53" style="stroke:#475569;stroke-width:1;"/></g><!--link Admin to UC13--><g class="link" data-entity-1="ent0004" data-entity-2="ent0019" data-link-type="dependency" data-source-line="59" id="lnk37"><path d="M81.52,1053.85 C127.24,1036.64 214.9247,1003.6439 271.9847,982.1639" fill="none" id="Admin-to-UC13" style="stroke:#475569;stroke-width:1;"/><polygon fill="#475569" points="277.6,980.05,267.7678,979.4773,272.9206,981.8115,270.5863,986.9643,277.6,980.05" style="stroke:#475569;stroke-width:1;"/></g><!--link Admin to UC14--><g class="link" data-entity-1="ent0004" data-entity-2="ent0020" data-link-type="dependency" data-source-line="60" id="lnk38"><path d="M81.52,1063 C118.87,1061.63 181.9841,1059.3017 237.1441,1057.2617" fill="none" id="Admin-to-UC14" style="stroke:#475569;stroke-width:1;"/><polygon fill="#475569" points="243.14,1057.04,233.9983,1053.3754,238.1434,1057.2248,234.294,1061.3699,243.14,1057.04" style="stroke:#475569;stroke-width:1;"/></g><!--link Admin to UC15--><g class="link" data-entity-1="ent0004" data-entity-2="ent0021" data-link-type="dependency" data-source-line="61" id="lnk39"><path d="M81.52,1070.17 C125.57,1080.25 207.9209,1099.0927 265.3509,1112.2227" fill="none" id="Admin-to-UC15" style="stroke:#475569;stroke-width:1;"/><polygon fill="#475569" points="271.2,1113.56,263.3179,1107.6547,266.3258,1112.4456,261.5349,1115.4535,271.2,1113.56" style="stroke:#475569;stroke-width:1;"/></g><!--link System to UC16--><g class="link" data-entity-1="ent0005" data-entity-2="ent0022" data-link-type="dependency" data-source-line="63" id="lnk40"><path d="M101.24,1247.19 C111.03,1243.93 121.35,1240.7 131.09,1238 C175.86,1225.61 221.3827,1215.7974 260.0927,1208.1874" fill="none" id="System-to-UC16" style="stroke:#475569;stroke-width:1;"/><polygon fill="#475569" points="265.98,1207.03,256.3774,1204.8412,261.0739,1207.9945,257.9206,1212.691,265.98,1207.03" style="stroke:#475569;stroke-width:1;"/></g><!--link System to UC17--><g class="link" data-entity-1="ent0005" data-entity-2="ent0023" data-link-type="dependency" data-source-line="64" id="lnk41"><path d="M101.44,1264 C145.22,1264 204.98,1264 253.96,1264" fill="none" id="System-to-UC17" style="stroke:#475569;stroke-width:1;"/><polygon fill="#475569" points="259.96,1264,250.96,1260,254.96,1264,250.96,1268,259.96,1264" style="stroke:#475569;stroke-width:1;"/></g><!--link System to UC18--><g class="link" data-entity-1="ent0005" data-entity-2="ent0024" data-link-type="dependency" data-source-line="65" id="lnk42"><path d="M101.44,1277.15 C146.13,1289.68 207.943,1307.0196 257.213,1320.8396" fill="none" id="System-to-UC18" style="stroke:#475569;stroke-width:1;"/><polygon fill="#475569" points="262.99,1322.46,255.4047,1316.178,258.1758,1321.1096,253.2442,1323.8807,262.99,1322.46" style="stroke:#475569;stroke-width:1;"/></g><!--link UC07 to UC06--><g class="link" data-entity-1="ent0013" data-entity-2="ent0012" data-link-type="dependency" data-source-line="67" id="lnk43"><path d="M326.55,521.1 C326.55,536.07 326.55,551.14 326.55,565.61" fill="none" id="UC07-to-UC06" style="stroke:#475569;stroke-width:1;stroke-dasharray:7,7;"/><polygon fill="#475569" points="326.55,571.61,330.55,562.61,326.55,566.61,322.55,562.61,326.55,571.61" style="stroke:#475569;stroke-width:1;"/><text fill="#000000" font-family="sans-serif" font-size="13" lengthAdjust="spacing" textLength="63.0068" x="283.55" y="550.8869">&#171;include&#187;</text></g><!--link UC08 to UC06--><g class="link" data-entity-1="ent0014" data-entity-2="ent0012" data-link-type="dependency" data-source-line="68" id="lnk44"><path d="M326.55,655.39 C326.55,640.41 326.55,625.07 326.55,610.44" fill="none" id="UC08-to-UC06" style="stroke:#475569;stroke-width:1;stroke-dasharray:7,7;"/><polygon fill="#475569" points="326.55,604.44,322.55,613.44,326.55,609.44,330.55,613.44,326.55,604.44" style="stroke:#475569;stroke-width:1;"/><text fill="#000000" font-family="sans-serif" font-size="13" lengthAdjust="spacing" textLength="63.0068" x="283.55" y="634.3369">&#171;include&#187;</text></g><!--link UC09 to UC06--><g class="link" data-entity-1="ent0015" data-entity-2="ent0012" data-link-type="dependency" data-source-line="69" id="lnk45"><path d="M246.86,746.24 C213.94,739.86 178.74,726.36 158.25,698.5 C121.9,649.08 208.6869,617.0145 270.5069,600.7745" fill="none" id="UC09-to-UC06" style="stroke:#475569;stroke-width:1;stroke-dasharray:7,7;"/><polygon fill="#475569" points="276.31,599.25,266.589,597.668,271.4741,600.5204,268.6217,605.4054,276.31,599.25" style="stroke:#475569;stroke-width:1;"/><text fill="#000000" font-family="sans-serif" font-size="13" lengthAdjust="spacing" textLength="63.0068" x="132.09" y="694.5669">&#171;include&#187;</text></g><!--link UC10 to UC07--><g class="link" data-entity-1="ent0016" data-entity-2="ent0013" data-link-type="dependency" data-source-line="70" id="lnk46"><path d="M267.64,819.56 C246.13,815.01 222.58,807.25 204.09,794 C174.01,772.45 168.88,759.94 158.25,724.5 C140.5,665.37 100.15,669.39 204.09,554 C221.27,534.92 241.0184,524.6487 264.2684,517.0287" fill="none" id="UC10-to-UC07" style="stroke:#475569;stroke-width:1;stroke-dasharray:7,7;"/><polygon fill="#475569" points="269.97,515.16,260.1718,514.1619,265.2187,516.7172,262.6634,521.764,269.97,515.16" style="stroke:#475569;stroke-width:1;"/><text fill="#000000" font-family="sans-serif" font-size="13" lengthAdjust="spacing" textLength="63.0068" x="132.09" y="720.5669">&#171;include&#187;</text></g><!--link UC11 to UC07--><g class="link" data-entity-1="ent0017" data-entity-2="ent0013" data-link-type="dependency" data-source-line="71" id="lnk47"><path d="M270.05,884.67 C248.01,880.14 223.44,872.36 204.09,859 C175.15,839.02 168.94,828 158.25,794.5 C152.1,775.22 137.18,635.2 204.09,554 C220.2,534.45 239.3733,524.1329 262.5033,516.6229" fill="none" id="UC11-to-UC07" style="stroke:#475569;stroke-width:1;stroke-dasharray:7,7;"/><polygon fill="#475569" points="268.21,514.77,258.4146,513.7449,263.4544,516.3141,260.8852,521.3538,268.21,514.77" style="stroke:#475569;stroke-width:1;"/><text fill="#000000" font-family="sans-serif" font-size="13" lengthAdjust="spacing" textLength="63.0068" x="132.09" y="790.5669">&#171;include&#187;</text></g><!--link UC12 to UC16--><g class="link" data-entity-1="ent0018" data-entity-2="ent0022" data-link-type="dependency" data-source-line="72" id="lnk48"><path d="M244.81,355.29 C229.17,361.64 214.46,370.8 204.09,384 C137.96,468.17 150.07,756.77 158.25,863.5 C168.47,996.89 115.61,1060.66 204.09,1161 C217.1,1175.76 230.0762,1182.9307 249.0262,1188.0307" fill="none" id="UC12-to-UC16" style="stroke:#475569;stroke-width:1;stroke-dasharray:7,7;"/><polygon fill="#475569" points="254.82,1189.59,247.1688,1183.3885,249.9918,1188.2906,245.0897,1191.1136,254.82,1189.59" style="stroke:#475569;stroke-width:1;"/><text fill="#000000" font-family="sans-serif" font-size="13" lengthAdjust="spacing" textLength="63.0068" x="132.09" y="859.5669">&#171;include&#187;</text></g><!--link UC13 to UC14--><g class="link" data-entity-1="ent0019" data-entity-2="ent0020" data-link-type="dependency" data-source-line="73" id="lnk49"><path d="M326.55,983.09 C326.55,998.55 326.55,1013.4 326.55,1028.49" fill="none" id="UC13-to-UC14" style="stroke:#475569;stroke-width:1;stroke-dasharray:7,7;"/><polygon fill="#475569" points="326.55,1034.49,330.55,1025.49,326.55,1029.49,322.55,1025.49,326.55,1034.49" style="stroke:#475569;stroke-width:1;"/><text fill="#000000" font-family="sans-serif" font-size="13" lengthAdjust="spacing" textLength="61.1851" x="284.55" y="1013.3769">&#171;extend&#187;</text></g><!--link UC13 to UC15--><g class="link" data-entity-1="ent0019" data-entity-2="ent0021" data-link-type="dependency" data-source-line="74" id="lnk50"><path d="M247.48,950.87 C215.4,951.03 180.87,958.07 159.25,982.5 C124.67,1021.57 164.07,1057.52 204.09,1091 C219.69,1104.06 234.0884,1110.72 253.5784,1115.86" fill="none" id="UC13-to-UC15" style="stroke:#475569;stroke-width:1;stroke-dasharray:7,7;"/><polygon fill="#475569" points="259.38,1117.39,251.6976,1111.2272,254.5453,1116.115,249.6575,1118.9627,259.38,1117.39" style="stroke:#475569;stroke-width:1;"/><text fill="#000000" font-family="sans-serif" font-size="13" lengthAdjust="spacing" textLength="61.1851" x="133.09" y="995.5669">&#171;extend&#187;</text></g><?plantuml-src TLFBRjim4BphAnRkEONbfrm40L8dRj42GGitG0-zRAIDo5eYNOgqOnJzzwuaqn1b-wRPcHtjWrlGgmMhmSXSMCYaeTHAhQ9g8zKM3PRmWkacDzgfRAaBRM0lfAKEZwdLPcqF1G7kgT9bbznoCkRKqhKtghpe2Yg1cTvBbSCh5bMNSHMbM17yZG0-zcfujqfMzwjbpMYJaJb6uzLeCPvpzDuOlJy69_FfTBQ8_lLBReqlff_zxd7qcAo6x16rgOEl0bCn0ApWawFA-l1JxhI4pAcyuPuhCfwwpqgfccZpvSEV2QpGtBwYbbqVAajb59s61OClJcsaXiUtBIaUo0_3vP4PD0tuAGqUM0oR0rYKi14QMxVdvJ0-Koc1My-EkkntHmfAj6o0pYl6ORw5Wl_G5qsYq0SL50SG6YhzI-qGKix9q7hvz99w9y5AEjKzkwJ99Mf-fSVPisf-ILMwjBOwLPTSiM8d9Phw_hW3fEAqj-LmqKtvIVKPQEv27_busESpLqiy7GpzIV0VsospfFbVrW0-EyB2of9ytYWwyyLAl6Wq6U3f1R5mVDQIDH9Kx_qjuqdVZz-Tt4bxW4BdbLTDWzy-N2aksCXI88_CQ0M_zOjN1Dlu9dWDEmVhFUOvcQPlKLkAL52wyJb9VLRD5S7DpLtxOWCu2k4uXFpowZFpS1gWMO3c0Ke2jEWYtcuNnG7Y5JKNxF4uX9CGycJRY_Q1MG_FUpZXVhXKUDys01_WzbQgj70PtTtLL7ATMbobuk6HcfzJyNLgr5Bn1SFnaPeq5BrPKbd8J0FcFm00?></g></svg>